<?xml version="1.0" encoding="UTF-8"?>
<svg id="Livello_1" xmlns="http://www.w3.org/2000/svg" version="1.1" viewBox="0 0 128 128">
  <!-- Generator: Adobe Illustrator 29.8.1, SVG Export Plug-In . SVG Version: 2.1.1 Build 2)  -->
  <path d="M94.21,0l10.33,1.04c3.95.55,14.58,2.32,17.28,4.95s4.53,13.43,5.07,17.41l1.03,10.34c-.15,3.12.2,6.4,0,9.5-.91,14.27-10.12,26.82-22.89,32.95-8.82,4.24-14.53,5.4-21.07,13.66-5.36,6.77-6.65,14.95-11.65,21.83-12.1,16.67-29.55,17.89-48.64,15.24-3.8-.53-14.94-2.48-17.52-4.96-2.95-2.85-4.84-15.38-5.34-19.65-2.05-17.54-1.15-33.15,13.34-45.07,8.75-7.2,19.12-7.88,27.35-16.37,5.27-5.44,6.71-10.19,9.69-16.79C57.19,10.84,69.5,1,84.32.23l.4-.23h9.49ZM111.44,7.75c-15.55-2.52-32.16-5.53-45.33,5.25-10.29,8.42-10.5,19.41-18.37,29.1-6.82,8.39-12.88,10.11-22.14,14.33C6.03,65.37,3.76,83.12,6.32,102.55c.39,2.99,1.13,5.92,1.47,8.91.47-.08.41-.53.53-.85,1.78-4.77,1.83-12.88,2.76-18.23,1.75-10.08,6.09-18.18,14.08-24.65s17.57-7.58,25.23-14.49c9.82-8.87,10.16-20.21,18.47-29.5,11.93-13.33,25.25-12.44,41.38-15.57.33-.06,1.21-.03,1.21-.41ZM118.94,11.75c-14.42,4.47-30.83,1.99-42.84,12.49-7.05,6.16-8.13,11.21-11.81,19.17-4.67,10.09-12.67,17.3-22.78,21.69-7.6,3.31-12.5,4.95-17.97,11.76-8.48,10.55-6.79,20.15-9.33,32.4-.67,3.22-1.83,6.27-2.66,9.44,9.9,2.83,21.01,4.38,31.35,3.77,12.93-.75,23.68-9.28,28.88-20.83,4.36-9.68,6.35-15.48,15.22-22.26,8.02-6.13,17.46-7.25,24.83-14.14,10.45-9.76,11.55-21.76,10.36-35.37-.53-6.11-1.73-12.2-3.25-18.12Z"/>
  <path d="M55.43,96.02c1.62-.26,3.29.83,3.32,2.56.05,3.24-3.69,7.95-6.14,9.87-1.88,1.48-9.28,6.14-9.87,1.39-.39-3.19,2.41-3.15,4.51-4.25,1.94-1.02,4.2-3.09,5.19-5.05.82-1.61.85-4.18,2.98-4.52Z"/>
  <path d="M80.8,59.3c.7-.62,2.84-1.22,3.84-1.78,1.95-1.09,3.74-2.68,4.87-4.62s1.49-5.81,4.72-4.8c4.05,1.27-.16,8.1-1.77,10-1.8,2.13-7.54,6.27-10.34,5.87-2.08-.3-2.9-3.26-1.32-4.66Z"/>
  <path d="M60.93,69.27c1.08-.16,2.42.53,2.82,1.56,1.31,3.31-3.3,9.01-5.78,10.99-1.97,1.57-9.75,6.14-9.99,1.02-.12-2.71,2.8-2.94,4.59-3.92,2-1.09,4.15-3,5.21-5.03.84-1.61.93-4.3,3.14-4.62Z"/>
  <path d="M86.9,26.8c3.72-.7,5.15,3.37,2.04,5.04-3.39,1.82-5.7,2.11-7.85,5.89-.65,1.15-1.22,3.63-1.99,4.26-2.32,1.91-4.77-.17-4.32-3.07.76-4.82,7.39-11.23,12.11-12.12Z"/>
  <path d="M28.45,90.78c1.74-.3,3.49.33,3.58,2.32.13,2.87-3.13,2.76-4.52,4.48-.85,1.05-.87,2.7-2.14,3.35-2.17,1.11-4.39-.68-3.98-2.98.52-2.96,4.11-6.67,7.07-7.18Z"/>
  <path d="M116.36,32.57c2.14,1.89-.09,5.72-1.66,7.31s-6.52,4.51-7.82,1.3c-1.38-3.42,2.47-3.56,4.07-5.3,1-1.08.99-2.78,2.26-3.49.95-.54,2.31-.56,3.15.18Z"/>
</svg>