<?xml version="1.0" encoding="UTF-8"?>
<svg id="Livello_1" xmlns="http://www.w3.org/2000/svg" version="1.1" viewBox="0 0 128 128">
  <!-- Generator: Adobe Illustrator 29.8.1, SVG Export Plug-In . SVG Version: 2.1.1 Build 2)  -->
  <path d="M101.78,32.72c9.33-1,18.93,3.94,21.06,13.57,2.55,11.58-3.71,26.6-11.84,34.83-4.74,4.81-10.76,8.05-15.87,12.38-.75.64-3.59,2.9-3.35,3.82.1.39,1.56,2.08,1.92,3.11,2.09,5.95-2.91,10.63-8.56,11.08-13.89,1.1-29.21-.84-43.26-.01-6.96-1.12-11.28-6.5-7.19-13.18.34-.56,1.49-1.37,1.2-2.06-7.55-7.08-16.9-11.59-23.09-20.18-5.87-8.14-10.58-22.94-6.67-32.57,3.25-8.01,11.83-11.63,20.1-10.77,1.8-4.63,7.67-9.52,12.65-9.98,3.47-.32,7.09.15,10.45.96,2.86-4.02,8.41-6.78,13.3-7.21,5.65-.5,12.75,2.55,16.04,7.21,3.36-.81,6.98-1.28,10.45-.96,5.04.46,10.8,5.33,12.66,9.97ZM62.19,20.56c-2.8.36-7.25,2.23-8.94,4.56-.71.97-.82,2.64-1.99,3.01-1.1.35-3.43-.73-4.76-1.02-6.34-1.35-12.32-.32-15.96,5.55-1.11,1.8-.94,4.11-3.42,4.1-2.99,0-4.49-.45-7.67.3-18.04,4.28-10.14,29.36-1.58,39.18,6.04,6.93,15.21,10.85,20.76,17.24,3.77,4.34.97,3.79-.93,7.33-2.04,3.78.81,6.2,4.42,6.69,13.84-.8,28.81,1.02,42.52,0,3.65-.27,7.14-2.81,4.92-6.69-1.23-2.15-3.55-2.74-1.66-5.55,4.51-6.69,15.96-11.91,21.98-18.77,9.09-10.34,17.09-36.23-2.58-39.67-2.66-.47-3.99-.06-6.42-.06s-2.24-2.17-3.33-3.95c-3.29-5.38-8.59-6.92-14.61-6.01-1.46.22-5.05,1.59-6.01,1.38-1.33-.29-1.49-2.14-2.3-3.21-2.42-3.2-8.59-4.92-12.44-4.43Z"/>
  <path d="M105.93,48.3c1.09-.32,2.36.03,2.72,1.19.32,1.02-.73,4.03-1.08,5.2-2.79,9.51-8.34,20.64-14.94,28.06-.88.99-3.86,4.21-5,4.21-1.49,0-2.34-1.66-1.74-2.96.27-.6,2.82-2.73,3.5-3.5,6.99-7.96,11.36-17.63,14.63-27.62.36-1.09.76-4.23,1.92-4.58Z"/>
  <path d="M20.43,48.3c.81-.24,1.94-.03,2.43.71,3.18,11.54,8.09,22.69,16.01,31.74,1.1,1.26,5.28,4.12,2.61,5.86-1.89,1.23-4.61-2.22-5.86-3.61-6.75-7.45-12.46-18.87-15.25-28.5-.43-1.47-2.1-5.55.05-6.2Z"/>
  <path d="M63.18,34.79c.99-.2,1.82.29,2.2,1.19l.12,40.14c-.34,2.94-4.23,2.08-4.02-.75v-38.26c.03-.97.7-2.13,1.69-2.33Z"/>
  <path d="M49.58,79.42c-.45-.41-1.53-3.48-1.83-4.29-2.52-6.91-4.31-14.84-5.67-22.08-.63-3.37-1.79-8.38-1.85-11.67-.05-2.82,2.4-3.69,3.76-1.25,1.85,12.76,4.14,25.57,8.96,37.56.12,1.8-1.97,3.03-3.38,1.73Z"/>
  <path d="M78.43,79.43c-1.29,1.31-3.62.01-3.39-1.74,4.78-12,7.13-24.8,8.96-37.56,1.36-2.44,3.81-1.57,3.76,1.25-.06,3.24-1.22,8.33-1.85,11.67-1.31,7.01-3.03,14.63-5.42,21.33-.32.91-1.61,4.58-2.07,5.05Z"/>
</svg>