<?xml version="1.0" encoding="UTF-8"?>
<svg id="Livello_1" xmlns="http://www.w3.org/2000/svg" version="1.1" viewBox="0 0 128 128">
  <!-- Generator: Adobe Illustrator 29.8.1, SVG Export Plug-In . SVG Version: 2.1.1 Build 2)  -->
  <path d="M106.99,56.09c9.28-.54,21.72,3.58,20.98,14.88-.83,12.73-15.72,8.35-21.79,16.26-5.96,7.77,6.54,20.35,1.7,30.46-3.51,7.33-15.59,8.21-22.39,6.2-8.78-2.6-13.76-10.77-15.53-19.33-4.96-23.95,12.58-47.05,37.03-48.48ZM104.95,59.58c-22.72,2.18-38.27,27-30.66,48.5,2.84,8.01,11.49,16.25,20.54,12.56,11.34-4.63,1.45-18.31.87-26.13-.76-10.31,7.49-17.15,16.64-19.69,4.45-1.24,11.22-.64,10.67-7.04-.65-7.59-12.28-8.75-18.06-8.2ZM122.15,75.76c-7.09,2.15-14.77,2.61-19.9,8.71-8.77,10.43,3.54,20.11.93,31.43-.3,1.28-.86,2.26-1.36,3.43,7.75-4.66,1.8-14.99.14-21.5-2.6-10.2,2.12-15.89,11.61-18.89,2.86-.91,6.52-.88,8.58-3.18Z"/>
  <path d="M19.84,40.11c8.88-1.06,13.88,2.8,15.37,11.48,1.08,6.27-.88,16.89,5.4,20.45,8.48,4.81,20.53-4.12,25.92,6.9,4.76,9.73-4.02,17.77-12.36,21.07-21.11,8.33-45.71-4.17-52.36-25.48-3.41-10.92-2.64-23.72,7.71-30.5,2.12-1.39,7.84-3.62,10.31-3.92ZM59.69,76.63c-2.73-.92-5.42.14-7.99.28-8.6.48-16.62-1.17-18.6-10.73-1.49-7.22,1.54-20.9-8.27-22.66,3.84,2.92,5.01,7.73,5.52,12.34.58,5.27-.51,10.81,2.5,15.51,3.68,5.76,11.04,7.03,17.4,6.7l9.44-1.45ZM16.65,44.74c-7.26.29-12.77,9.16-13.31,15.77-2.12,25.92,26.14,46.28,50.16,36.21,5.04-2.11,13.07-8.64,8.81-14.72-2.51-3.59-7.92-.97-11.46-.71-9.31.68-19.78-2.34-22.67-12.21-2.43-8.28,2.25-24.88-11.52-24.33Z"/>
  <path d="M84.04,3.22c11.76-.65,26.75,4.44,30.35,16.83,2.14,7.38.7,20.97-8.21,23.31-9.68,2.54-19.38-6.99-26.88-4.51-10.5,3.47-5.72,20.85-18.29,22.09-9.41.93-14.27-7.19-14.95-15.54-1.8-21.98,16.41-40.98,37.99-42.17ZM82.01,6.71c-18.07,1.6-34.12,19.15-32.78,37.54.37,5.08,3.29,12.26,9.45,11.76,4.31-.35,4.28-5.62,5.23-8.72,3.33-10.91,11.06-20.2,23.61-16.93,6.16,1.61,16.32,8.45,21.84,2.25s1.87-15.29-3.63-19.88c-6.29-5.26-15.74-6.73-23.72-6.02ZM109.37,36.83c-12.32,6.6-23.56-10.52-35.3-.59-5.67,4.79-6.9,12.14-8.85,18.89,2.09-1.91,2.29-5.26,3.27-7.91,2.93-7.93,7.58-13.48,16.83-11.75,6.66,1.24,17.8,9.19,23.47,2.38.27-.33.71-.47.58-1.02Z"/>
</svg>