<?xml version="1.0" encoding="UTF-8"?>
<svg id="Livello_1" xmlns="http://www.w3.org/2000/svg" version="1.1" viewBox="0 0 128 128">
  <!-- Generator: Adobe Illustrator 29.8.1, SVG Export Plug-In . SVG Version: 2.1.1 Build 2)  -->
  <path d="M65.25,0c9.12,5.24,14.11,15.76,10.12,26-.84,2.15-2.33,5.71-5.21,4.22s.23-4.86.85-6.83c2.05-6.53-.42-12.94-5.5-17.26-.42-.36-1.28-1.16-1.76-1.03s-3.16,2.85-3.62,3.4c-5.79,6.87-4.9,15.71,1.4,21.85,1.92,1.87,5.35,2.87,4.98,5.9,5.49-6.33,13.4-8.3,21.5-6.38,6.87,1.63,7.15,4.47,5.68,10.93-1.09,4.75-3.76,9.16-7.67,12.08-.08.55.08.3.37.37,3.68.86,7.92,1.35,8.03,6.09.14,6.09-3.48,13.69-8.4,17.29,2.17.99,5.62.97,7.24,3,2.76,3.44-.28,11.92-2.39,15.35-5.17,8.38-15.15,10.96-24.36,8.27v22.88c0,.63-1.22,1.56-1.75,1.88h-1.5c-.53-.31-1.75-1.25-1.75-1.88v-22.88c-9.21,2.69-19.19.11-24.36-8.27-2.09-3.39-5.39-12.45-2.15-15.61,1.82-1.79,4.79-1.77,7-2.74-4.92-3.61-8.54-11.2-8.4-17.29.11-4.76,4.35-5.23,8.03-6.09.3-.07.45.19.37-.37-2.68-2.01-4.85-4.74-6.21-7.79-1.28-2.87-3.05-9.17-1.59-12.01,1.11-2.17,5-3.12,7.26-3.49,4.98-.83,9.76-.35,14.3,1.92-8.37-10.64-4.42-25.14,7-31.5h2.5ZM89.24,35.26c-7.44-2.3-15.66-1.22-20.04,5.82-.93,1.49-3.48,8.1-2.59,9.43.26.39,3.42,1.06,4.08,1.17,10.79,1.75,18.56-5.83,18.54-16.42ZM38.52,35.52c.29,12.17,11.42,19.91,22.86,14.99.12-12.43-11.39-19.62-22.86-14.99ZM61.5,60v-4.25l-3.5.75,3.5,3.5ZM66.5,55.75v4.25l3.5-3.5-3.5-.75ZM61.46,74.22c.06-12.33-11.58-19.89-22.93-14.93.43,12.35,11.34,19.55,22.93,14.93ZM89.22,59.03c-11.37-4.42-22.74,2.86-22.68,15.18,11.45,4.7,22.98-2.75,22.68-15.18ZM61.5,79.5l-3.5.75,3.5,3.25v-4ZM66.5,79.5v4l3.5-3.25-3.5-.75ZM61.47,97.97c.14-12.3-11.59-20.09-22.86-14.98.26,12.28,11.41,19.46,22.86,14.98ZM66.53,97.97c11.33,4.54,23.11-2.86,22.61-15.23-11.39-4.58-22.7,2.99-22.61,15.23Z"/>
</svg>