<?xml version="1.0" encoding="UTF-8"?>
<svg id="Livello_1" xmlns="http://www.w3.org/2000/svg" version="1.1" viewBox="0 0 128 128">
  <!-- Generator: Adobe Illustrator 29.8.1, SVG Export Plug-In . SVG Version: 2.1.1 Build 2)  -->
  <path d="M79.51,0c.6.5,1.1.79,1.23,1.64.25,1.6.22,7.07.02,8.74-.18,1.57-1.27,2.02-2.76,1.87l.06,5.57c5.02,11.9,14.58,23.55,15.2,36.79,1.01,21.3-.79,43.39,0,64.77.03,4.3-2.32,7.81-6.63,8.61h-44.76c-4.31-.36-7.04-3.93-7.11-8.13.83-21.59-1.11-44.01-.01-65.5.67-13.04,10.28-24.79,15.2-36.54l.06-5.57c-1.49.15-2.57-.3-2.76-1.87-.2-1.67-.23-7.14.02-8.74.13-.85.63-1.14,1.23-1.64h31ZM76.76,4.25h-25.5v3.62c.22.36.5.34.86.39,7.31.86,16.28-.68,23.77,0l.86-.39v-3.62ZM74.01,12.25h-20v6.87l-8,15.62c1.91.23,3.4,2.22,5,2.88,5.06,2.08,7.02-2.8,11.65-3.35,5.53-.65,5.96,2.11,9.71,3.49,4.21,1.55,6.16-1.78,9.64-3.14l-8-15.5v-6.87ZM83.99,38.51c-2.19.28-3.57,2.23-5.56,3.03-2.72,1.08-5.88.96-8.5-.34-2.79-1.39-2.96-3.05-6.8-2.72-3.4.3-4.8,4.02-10.25,3.77-4.07-.19-5.33-2.65-8.84-3.74-2.3,4.75-4.67,9.17-5.03,14.6v67.26c.04,1.83,1.25,3.3,3.12,3.38h43.77c1.89-.08,3.08-1.55,3.12-3.38V53.11c-.36-5.42-2.73-9.84-5.03-14.6Z"/>
  <path d="M45.94,45.05c.94-.28,2.22.07,2.63,1.01.68,1.58-1.5,4.88-1.32,6.8v48.25c-.34,3.07-3.7,3.24-4.25.26v-48.01c.23-1.75,1.08-7.75,2.93-8.31Z"/>
  <path d="M44.95,107.54c.97-.1,1.87.58,2.15,1.49.32,1.05.34,7.85.11,9.03-.45,2.24-3.51,2.34-4.07.19-.3-1.16-.29-7.54-.06-8.82.17-.96.86-1.78,1.87-1.88Z"/>
  <path d="M59.95,16.31c1.3-.23,7.1-.24,8.33.05,2.36.55,2.23,3.75-.41,4.12-1.39.19-6.85.21-8.12-.09-2.3-.54-2.21-3.65.2-4.08Z"/>
</svg>