<?xml version="1.0" encoding="UTF-8"?>
<svg id="Livello_1" xmlns="http://www.w3.org/2000/svg" version="1.1" viewBox="0 0 128 128">
  <!-- Generator: Adobe Illustrator 29.8.1, SVG Export Plug-In . SVG Version: 2.1.1 Build 2)  -->
  <path d="M128.06,27.63c.14,1.47.12,4.02,0,5.51-1.19,15.16-16.74,31.93-30.79,36.68-23.79,8.04-44.24-14.57-40.2-37.72,1.21-6.92,3.71-10.61,7.18-16.35,1.76-2.91,1.74-4.66,5.17-6.6C76.75,5.01,82.76.67,91.65.07c16.34-1.1,34.77,10.32,36.42,27.56ZM86.27,6.35c2.1,8.44-3.52,17.57-10.68,21.73-3.99,2.32-8.23,3.27-12.85,2.66-3.12,11.08,1.3,23.57,10.3,30.55,11.71,9.1,25.11,4.71,35.38-4.12,11.12-9.56,19.8-25.39,10.45-39.24-7.04-10.42-20.47-15.3-32.59-11.59ZM81.52,8.35c-2.85.81-4.98,2.97-7.43,4.46-1.1.67-2.5.85-3.43,1.83s-.98,2.22-1.55,3.21c-.45.79-5.12,7.32-4.6,7.79,9.12.76,17.81-8.18,17.01-17.28Z"/>
  <path d="M35.17,60.75c3.23-.44,3.86.53,6.45,1.17,1.89.47,3.94.62,5.87,1.14,18.28,4.86,29.81,22.67,25.65,41.45-5.03,22.66-34.98,27.59-53.74,20.47-26.68-10.12-24.92-45.53-1.69-58.42,4.94-2.74,8.34-3.13,13.58-4.44,1.22-.31,2.43-1.17,3.88-1.37ZM48.49,68.7c-.38-.45-6.89-1.4-7.97-1.67-1.72-.43-2.38-1.27-4.43-1.1-1.33.11-2.17.89-3.3,1.2-.87.24-8.33,1.32-8.31,2.19,4.5,5.26,12.73,6.26,18.93,3.68.86-.36,5.92-3.33,5.08-4.3ZM53.41,71.22c-7.5,10.97-26.19,11.14-33.82.24-16.73,9.57-20.88,36.31-2.55,46.61,14.67,8.24,43.79,6.32,50.22-11.93,3.79-10.75.36-23.67-8.14-31.18-.75-.66-5.01-3.95-5.71-3.74Z"/>
  <path d="M16.62,105.6c.45.4.98,1.4,1.43,1.83,2.88,2.71,6.95,4.62,10.87,5.28,1.94.33,5.44.14,7,.76,2.1.83,1.83,4.27-.36,4.77-2.53.57-8.34-.47-10.94-1.21-4.2-1.21-9.4-4.24-11.86-7.91-2.22-3.31,1.26-5.85,3.87-3.5Z"/>
  <path d="M10.89,94.04c3.85-.74,4.29,5.98.92,6.45-3.68.51-3.93-5.87-.92-6.45Z"/>
</svg>