<?xml version="1.0" encoding="UTF-8"?>
<svg id="Livello_1" xmlns="http://www.w3.org/2000/svg" version="1.1" viewBox="0 0 128 128">
  <!-- Generator: Adobe Illustrator 29.8.1, SVG Export Plug-In . SVG Version: 2.1.1 Build 2)  -->
  <path d="M127.97,38.05v6.25c-.47,2.24-.8,4.48-1.43,6.69-4.34,15.22-19.04,23.45-33.55,26.93-.22.58.59.33.88.36,7.74.86,27.38,3.09,32.56,8.92.71.8,1.04,1.68,1.54,2.58-.06.81.09,1.71,0,2.5-.9,7.91-8.35,14.54-14.82,18.29-25.76,14.92-77.26,14.93-101.94-2.34-4.86-3.4-9.51-8.18-10.79-14.2s1.12-7.98,6.28-10.21c4.98-2.16,10.73-3.18,16.08-4.04-.01-.69.14-2.85-.41-3.27-.58-.44-3.84-1.14-4.9-1.54C7.7,71.26-.61,65.22.04,53.66c1.25-22.38,28.14-17.85,43.61-19.61,2.94-.33,6.29-.89,9.17-1.57,18.57-4.41,24.44-24.6,45.3-25.91,16.75-1.05,28.7,16.22,29.85,31.49ZM63.51,72.54c.92,1.58,3.26,3.78,5.12,4,2.81.34,7.57-.19,10.5-.51,17.95-1.96,40.41-9.06,44.03-29.43,2.77-15.57-7.69-37.26-25.79-35.54-15.97,1.52-22.08,15.75-34.78,22.44-8.82,4.65-19.47,4.91-29.19,5.54-11.92.78-28.56-.65-29.1,15.62-.35,10.39,10.44,14.93,18.73,17.62l1.39-4c-7.96-2.79-18.23-6.34-15.46-16.95,1.55-5.97,8.24-6.87,13.49-7.5,17.04-2.05,32.93.8,47.9-10.07,7.39-5.36,12.41-13.43,21.07-17.17,20.24-8.74,32.54,17.53,26.51,33.77-6.53,17.59-32.75,21.53-49.03,22.19-1.79.07-3.6-.08-5.38,0ZM99.36,19.2c-10.21-.07-17.21,10.83-24.39,16.45-10.28,8.05-21.68,10.79-34.57,11.66-6.19.42-20.45-.15-25.45,2.79-2.99,1.76-2.7,6.24-.43,8.58,1.96,2.03,9.67,5.44,12.44,5.81,1.16.16,2.19-.89,3.31-1.32,7.94-3.07,22.95-.72,29.48,4.99,16.98.5,51.91-1.78,55.14-23.56,1.4-9.42-4.18-25.33-15.55-25.41ZM103.49,97.52c-1.18-3.52-6.29-2.65-8.24-3.88-1.52-.96-.6-2.77-1.65-4.35-4.2-6.31-21.46-5.42-28.51-9.47-4.8-2.76-6.21-7.94-10.86-10.38-4.91-2.57-16.69-4.33-21.87-2.45-7.71,2.79-5.49,13.07-3.51,19.09.44,1.33,2.27,5.04,2.17,6.05-.26,2.67-3.17,1.4-4.48,2.53-.8.69-.65,1.97-1.01,2.86,3.86.52,7.74,1.13,11.62,1.5,15.53,1.47,32.41,1.62,47.97.5,6.14-.44,12.24-1.42,18.37-2ZM107.77,96.49c.93.58,10.75-2.54,12.29-3.24,1.76-.81,5.03-2,2.53-3.96-2.18-1.7-8.06-3.21-10.87-3.88-6.64-1.57-13.47-2.3-20.24-3.12l3.12,2c1.68,1.64,3.59,3.22,3.9,5.72,3.98.16,7.78,2.8,9.26,6.48ZM23.76,84.05c-5.51,1.04-13.22,2-17.95,5.13-2.12,1.4-1.69,1.9.31,3.15,4.1,2.57,10.45,3.56,15.16,4.45.03-2.77,1.78-5.7,4.5-6.5l-2.02-6.23ZM121.47,97.28c-9.28,3.71-19.68,5.01-29.61,6-22.8,2.27-51.7,2.12-74.13-2.58-3.82-.8-7.52-2.05-11.2-3.29,3.35,5.38,9.39,9.08,15.07,11.66,22.93,10.42,58.1,10.56,81.43,1.39,5.66-2.23,12.7-5.89,16.68-10.55.24-.28,1.91-2.46,1.74-2.63Z"/>
  <path d="M97.44,24.13c4.28-.26,7.96,1.04,10.67,4.42,1.37,1.71,3.13,5.69,2.87,7.85-.2,1.66-2.53,2.62-3.75,1.28-.77-.84-1.02-3.96-1.94-5.55-1.85-3.18-4.68-3.85-8.18-3.59-1.99.15-5.57,2.01-6.86.64-3.41-3.61,5.16-4.93,7.2-5.05Z"/>
  <path d="M39.95,89.58c.4-.09.78-.07,1.19-.06,3.11.13,6.81.94,10,1.25,8.51.83,17.96,1.84,26.49,1.51,2.34-.09,7.99-1.99,7.35,2.1-.3,1.92-4.39,2.05-6.1,2.15-8.9.53-20.3-.56-29.24-1.51-2.71-.29-6.11-.54-8.72-1.02-1.45-.27-2.87-.79-2.65-2.57.1-.77.92-1.67,1.67-1.84Z"/>
</svg>