<?xml version="1.0" encoding="UTF-8"?>
<svg id="Livello_1" xmlns="http://www.w3.org/2000/svg" version="1.1" viewBox="0 0 128 128">
  <!-- Generator: Adobe Illustrator 29.8.1, SVG Export Plug-In . SVG Version: 2.1.1 Build 2)  -->
  <defs>
    <style>
      .st0 {
        fill: #fff;
      }
    </style>
  </defs>
  <path d="M128,65.72v1.75c-10.82,20.04-31.47,33.58-54.57,33.8-4.64,4.98-10.79,7.86-17.38,9.37-2.75.63-8.51,1.72-11.16,1.31-2.91-.44-2.3-5.05-2.14-7.36.24-3.4,1.17-6.76,2.5-9.87-6.95-2.74-13.73-6.04-19.92-10.23l-.34.09c-3.56,5.8-10.17,9.45-16.74,10.77-2.62.53-6.73,1.65-8.26-1.13v-5.25c.5-1.96.49-4.03.86-6.01,1.09-5.88,3.84-12.16,8.13-16.36-4.45-4.22-7.04-10.4-8.13-16.36-.36-1.98-.41-4.05-.86-6.01v-5c.65-1.14,1.46-1.97,2.88-2.01,6.19-.16,15.02,3.48,19.36,7.89.73.74,2.08,2.98,2.62,3.4.22.17.35.29.64.13,4.35-2.93,9-5.4,13.76-7.57-1.56-7.44-4.76-14.39-7.15-21.57-.55-2.13.9-3.6,3.02-3.53,3.75.12,9.15,1.31,12.92,2.09,9.19,1.92,20.81,5.32,28.07,11.43.69.58,2.36,2.62,2.89,2.86,1.17.52,5.52.88,7.25,1.25,18.15,3.98,32.79,16.11,41.75,32.13ZM70.25,31.97c-4.08-2.94-9.24-4.85-14.06-6.31-5.68-1.72-11.56-2.87-17.44-3.68l5.5,16.75c8.46-2.97,16.94-6.16,26-6.75ZM5.5,90.22c5.09-.47,10.76-3.09,14-7.13,1.33-1.66,2.5-5.7,4.86-5.6,1.13.05,4.62,3,5.92,3.84,12.29,7.98,32.36,15.74,47.1,14.39,18.88-1.72,35.75-12.74,44.77-29.27-11.44-19.77-34.35-32.26-57.4-28.36-10.99,1.86-26.75,8.5-35.97,14.78-1.72,1.17-2.99,3.33-5.28,2.73-1.63-.43-2.94-4.22-4.25-5.75-3.32-3.9-8.75-6.17-13.74-6.88.27,6.86,2.18,15.16,7.37,20.01,1.51,1.41,3.72,1.89,3.01,4.5-.35,1.29-2.74,2.41-3.76,3.49-4.56,4.82-6.33,12.81-6.62,19.26ZM65.75,100.73c-2.15-.24-4.32-.69-6.41-1.22-1.28-.32-8.18-2.63-8.66-2.5-1.8.5-2.45,7.82-2.68,9.46,5.26-.58,10.52-1.71,15.25-4.12l2.49-1.63Z"/>
  <path class="st0" d="M0,88.97v-44.75c.45,1.96.5,4.03.86,6.01,1.09,5.96,3.68,12.14,8.13,16.36-4.29,4.2-7.04,10.48-8.13,16.36-.37,1.98-.36,4.06-.86,6.01Z"/>
  <path d="M81.93,42.78c1.74-.4,3.28.47,3.34,2.32.06,1.63-1.29,3.13-1.89,4.63-3.89,9.63-4.47,20.98-1.14,30.88.58,1.74,2.9,5.72,3.02,6.99.27,2.91-3.05,4.24-4.87,1.86-7.58-9.93-7.24-34.57-.44-44.91.41-.63,1.24-1.6,1.98-1.77Z"/>
  <path d="M71.18,42.78c1.72-.4,3.59.76,3.59,2.57,0,.9-1.69,3.55-2.13,4.63-3.71,9.02-4.03,18.6-1.81,28.04.47,2.01,2.53,5.3.17,6.81-3.79,2.43-5.06-3.98-5.62-6.36-2.19-9.28-1.82-19.38,1.37-28.38.61-1.71,2.65-6.91,4.43-7.32Z"/>
  <path d="M95.45,53.28c6.97-.73,7.93,9.8,1.41,10.67-7.3.97-8.41-9.94-1.41-10.67Z"/>
</svg>