<?xml version="1.0" encoding="UTF-8"?>
<svg id="Livello_1" xmlns="http://www.w3.org/2000/svg" version="1.1" viewBox="0 0 128 128">
  <!-- Generator: Adobe Illustrator 29.8.1, SVG Export Plug-In . SVG Version: 2.1.1 Build 2)  -->
  <path d="M83.89,10.46h-4.49c-.09-2.56-.57-6.08-3.79-6.18-4.25-.14-3.5,3.73-2.73,6.68.22.85,1.82,4.17,1.64,4.54l-2.81,2.73c-1.97-.88-6.39-2.88-7.83-.46-2.5,4.19,6.01,5.39,8.47,5.93l1.06,3.86c-14.32,11.93-28.22,25.18-43.53,35.84-2.83,1.97-5.87,3.64-8.7,5.6-9.91,6.86-20.23,16.74-15.78,30.07.75.07.45.01.55-.42,1.48-6.53,6.9-10.84,11.78-15.15,14.21-12.55,30.95-21.83,45.84-33.52,6.58-5.17,17.4-13.79,22.45-20.17.16-.2,1.29-1.81.28-1.4s-3.85,2.6-4.76,3.37c-2.94,2.49-5.5,5.85-8.46,8.38l-3.18-2.92c5.11-5.16,9.77-10.55,16.42-13.88-.85-5.37-3.69-12.56,1.71-16.5,3.87-2.82,8.8-2.17,11.7,1.66.98,1.29,1.23,2.54,1.99,3.89,3.9-2.93,8.92-5.25,13.52-2.29,6.13,3.95,4.31,11.36.37,16.18,3.47,1.28,6.84,3.59,7.25,7.6.29,2.86-1.09,6.3-3.52,7.92-1.32.88-3.22.79-3.74,2.29,4.71-.23,11.68,1.15,12.34,6.87.95,8.3-5.33,10.68-12.34,8.27.51,3.45.06,6.8-3.22,8.7-5.95,3.44-9.98-1.78-11.5-7.02-10.3,12.09-21.33,24.06-30.65,36.92-6.74,9.29-11.81,20.03-21.95,26.28-8.79,5.42-18.06,4.99-26.76-.39-.74,1.04-1.3,2.25-2.03,3.29-.14.2.07.49-.46.32l-3.54-2.35,2.22-3.88c-1.08-.54-2.79-2.72-3.62-3.14-.27-.14-.29-.14-.56,0-.71.36-2.74,3.13-3.27,3.22l-3.18-2.92,3.37-3.65-3.12-4.04-4.04,2.19-2.07-3.71,3.34-2.29c-5.81-8.63-6.09-18.37-.56-27.21,6.29-10.06,16.92-15.05,26.17-21.78,12.85-9.34,24.84-20.35,36.92-30.65-5.23-1.52-10.46-5.55-7.02-11.5,1.9-3.28,5.25-3.73,8.7-3.22-1.76-5-1.21-11.62,5.19-12.34,7.06-.79,9.66,4.09,9.96,10.38ZM97.39,17.43c.22-3.5-.37-8.33-4.96-7.81-2.87.32-3.35,2.79-3.23,5.2.36,6.8,4.92,12.99-.82,19.07-15,15.87-33.5,27.44-51.13,40-7.49,5.33-19.27,13.77-24.86,20.84-4.05,5.13-2.27,11.53,1.26,16.39l20.75-20.74,3.22,3.22-20.61,20.89c4.7,3.28,11.2,5.13,16.14,1.27,6.95-5.44,15.73-17.65,20.97-25.01,12.68-17.81,24-35.86,40-51.13,5.78-5.52,12.02-1.41,18.56-.86,2.54.21,5.36-.06,5.72-3.18.52-4.58-4.31-5.18-7.81-4.96-.25-.96-1.69-3.04-1.32-3.87,2.68-2.68,8.02-8.75,4.23-12.36s-9.61,1.89-12.41,4.46l-3.68-1.41ZM100.15,41.31c-.78-.11-1.23.15-1.82.56-4.83,3.34-9.71,10.92-14.15,15.01l-5.33,6.86c2.08-1.77,4.17-3.6,6.17-5.46,4.47-4.19,10.5-9.48,13.8-14.52.2-.31,1.51-2.29,1.34-2.45ZM111.09,42.99l-6.13-1.08c-2.8,5.86-7.38,10.35-11.95,14.83s-9.77,9.18-14.72,13.6c-3.3,2.94-8.98,6.78-11.68,9.77-3.89,4.3-8.3,12.46-12.04,17.54s-7.91,10.44-12.3,15.18c-3.97,4.27-7.01,7.92-12.9,9.26-.43.1-.49-.19-.42.55,11.13,3.73,19.95-2.93,26.63-11.08,3.87-4.73,6.84-10.36,10.43-15.36,10.42-14.53,22.97-27.86,34.44-41.57l3.86,1.06c.54,2.45,1.74,10.97,5.93,8.47,2.42-1.44.42-5.86-.46-7.83l3.09-2.9c3.03,1.56,11.37,4.89,10.83-1.27-.41-4.77-9.35-3.59-12.58-3l-1.9-3.48,1.87-2.66Z"/>
  <rect x="38.54" y="85.12" width="4.34" height="4.34" transform="translate(-50.84 57.37) rotate(-46.9)"/>
</svg>