<?xml version="1.0" encoding="UTF-8"?>
<svg id="Livello_1" xmlns="http://www.w3.org/2000/svg" version="1.1" viewBox="0 0 128 128">
  <!-- Generator: Adobe Illustrator 29.8.1, SVG Export Plug-In . SVG Version: 2.1.1 Build 2)  -->
  <path d="M66.76,0l.98,1.15,3.54,23.77c3.85.22,9.12-1.02,10.82,3.52.56,1.48.59,6.89.36,8.58-.13.98-.69,1.85-1.23,2.64,3.39,1.11,5.12,3.64,5.46,7.14v75.52c-.29,2.82-1.71,4.89-4.61,5.37-11.53-.59-23.99.88-35.41.04-3.45-.25-5.02-2.29-5.35-5.63V47.03c.3-3.59,2-6.23,5.48-7.37-.53-.79-1.09-1.66-1.23-2.64-.23-1.69-.2-7.1.36-8.58,1.71-4.54,6.97-3.3,10.82-3.52l3.54-23.77.98-1.15h5.49ZM64.26,4.24c-.65-.05-.41-.03-.49.38-1.24,6.63-1.71,13.66-2.75,20.33,3.22-.44,5.1,2.93,1.61,4.23l-12.34.14c-1.06.5-.86,5.12-.76,6.25.07.76.17,1.44.93,1.81l27.42-.18c.84-.6.74-5.24.61-6.39-.05-.47-.22-1.11-.61-1.38-.92-.65-7.02.02-8.74-.25-.64-.1-1.16-.47-1.44-1.05l-3.44-23.88ZM82.17,123.42l.32-1.55-.24-76.36c-.73-1.85-4.94-3.15-6.65-4.08l-23.57.1c-2.15,1.43-6.14,2.01-6.48,5l.17,76.66c.23.53,1.39.53,1.94.56,10.72.69,22.16-.55,32.95,0l1.55-.32Z"/>
  <path d="M77.16,49.45c1.09-.32,2.13-.03,2.63,1.01l.06,42.84c-1.12,1.53-2.61,1.53-3.73,0l-.14-42.29c-.05-.54.73-1.42,1.19-1.56Z"/>
  <path d="M79.4,99.12c.85.78.84,6.07.19,6.89-.99,1.25-3.19.94-3.55-.66-.18-.79-.18-4.59,0-5.38.32-1.41,2.35-1.77,3.36-.85Z"/>
</svg>