<?xml version="1.0" encoding="UTF-8"?>
<svg id="Livello_1" xmlns="http://www.w3.org/2000/svg" version="1.1" viewBox="0 0 128 128">
  <!-- Generator: Adobe Illustrator 29.8.1, SVG Export Plug-In . SVG Version: 2.1.1 Build 2)  -->
  <path d="M35.04.14c21.45-2,37.72,17.84,31.59,38.53-3.96,13.38-17.86,24.39-31.1,27.73-5.43,1.37-12.12,1.53-17.78,1.83-10.56.57-18.19-4.19-18.22-15.5-.01-4.02.42-10.47.88-14.51C2.36,21.03,16.93,1.83,35.04.14ZM37.15,5.27c-15.8.78-29.08,16.89-31.27,31.79-.47,3.18-.18,5.9-.34,9.02-.25,5-2.14,10.94,2.4,14.77,4.04,3.41,8.26,1.85,12.81,1.64,2.19-.1,4.46.15,6.65,0,18.75-1.24,40.03-19.14,34.39-39.52-2.96-10.69-13.58-18.26-24.65-17.71Z"/>
  <path d="M64.3,65.91c18.44-1.79,33.25,14.98,29.18,33.1-2.9,12.91-15.23,23.46-27.61,27-5.15,1.47-11.64,1.71-17.05,1.96-9.82.46-17.03-3.59-17.01-14.3,0-3.12.37-7.66.58-10.89,1.08-16.62,14.46-35.18,31.91-36.87ZM67.23,71.12c-14.4-.07-26.63,14.16-28.97,27.58-.54,3.13-.27,5.55-.45,8.6-.24,4.17-1.78,8.81,1.05,12.53,3.33,4.36,8.5,2.62,12.97,2.39,3.97-.2,6.63.1,10.67-.8,15.12-3.36,30.14-18.16,25.48-34.72-2.59-9.18-11.26-15.54-20.75-15.59Z"/>
  <path d="M103.82,12.2c16.17-1.82,28.7,13.01,23.44,28.57-3.72,10.99-16.05,19.37-27.45,20.22-2.79.21-7.91.54-10.57.32-10.97-.93-10.47-11.08-9.81-19.48,1.02-12.92,10.51-28.06,24.38-29.62ZM105.03,17.33c-10.11,1.12-19.22,12.68-20.11,22.43-.16,1.79.05,3.6-.04,5.39-.17,3.28-1.66,7.36,1.66,9.81,2.83,2.08,6.21.81,9.35.61,8.56-.54,13.98-1.34,20.52-7.54,12.64-11.98,5.87-32.6-11.39-30.7Z"/>
  <path d="M22.04,17.61c1.99-.6,4.12,1.11,3.52,3.2-1.71,2.41-3.82,4.48-5.37,7.02-1.76,2.9-3.42,6.83-4.01,10.17-.3,1.69-.16,4.88-.62,6.02-.96,2.37-4.64,2.1-4.91-.96-.67-7.33,3.51-16.79,8.17-22.33.43-.51,2.82-2.99,3.22-3.12Z"/>
  <path d="M76.35,80.36c2.28-.5,4.12,2.33,5.15,4.07,4.27,7.23,2.26,15.76-3.1,21.82-1.21,1.36-2.54,3.08-4.49,2.07-3.95-2.05,1.59-6.42,2.88-8.81,3.27-6.08,2.13-9.44-1.51-14.58-1.19-1.68-1.28-4.05,1.07-4.57Z"/>
  <path d="M105.02,22.45c3.16-.43,7.4.47,9.59,2.92,1.45,1.62,1.4,3.87-.85,4.61s-2.82-1.27-4.53-1.95c-1.84-.73-3.77-.48-5.55.31-2.15.96-4.26,4.52-6.72,2.9-.5-.33-1.19-1.55-1.22-2.12-.15-2.78,6.86-6.36,9.28-6.69Z"/>
</svg>