<?xml version="1.0" encoding="UTF-8"?>
<svg id="Livello_1" xmlns="http://www.w3.org/2000/svg" version="1.1" viewBox="0 0 128 128">
  <!-- Generator: Adobe Illustrator 29.8.1, SVG Export Plug-In . SVG Version: 2.1.1 Build 2)  -->
  <path d="M81.1.03c15.74-.64,29.97,9.42,36.16,23.54,20.5,46.76-30.01,114.43-81.44,103.19C2.67,119.51-3.52,83.45,20.98,61.75c7.33-6.49,17.94-9.07,21.68-18.54,1.4-3.55,1.99-8.14,3.26-11.93C51.29,15.36,63.06.77,81.1.03ZM81.4,7.77c-12.6.33-21.62,10.28-26.34,21.06l.02.32c11.74,9.64,11.68,28.05-.46,37.36-8.41,6.44-19.54,6.33-28.38.82-9.73,8.15-15.19,20.53-11.22,33.18,5.56,17.73,26.34,22.23,42.67,18.81,34.48-7.22,62.19-49.35,55.22-83.93-3.13-15.53-14.83-28.05-31.49-27.62ZM31.71,63.69c18.6,8.56,34.83-13.26,21.3-28.59-.56-.02-2.5,9.06-2.9,10.21-1.82,5.21-6.53,10.88-11.16,13.86-2.1,1.35-4.95,2.36-6.87,3.84-.25.19-.54,0-.37.68Z"/>
</svg>