<?xml version="1.0" encoding="UTF-8"?>
<svg id="Livello_1" xmlns="http://www.w3.org/2000/svg" version="1.1" viewBox="0 0 128 128">
  <!-- Generator: Adobe Illustrator 29.8.1, SVG Export Plug-In . SVG Version: 2.1.1 Build 2)  -->
  <path d="M85.94,0c6.5,2.1,6.92,7.35,6.5,13.36-.3,4.32-2.61,7.1-6.76,8.25-.02,6.06.08,12.13.03,18.19-.03,3.91-.86,8.17.17,12.03.68,2.54,3.1,5.64,4.61,7.87,9.97,14.72,21.38,28.92,31.1,43.75,6.78,10.35,7.15,22.44-7.57,24.27l-63.01-.11c-2.29-1.01-1.98-4.58.63-4.88,21.18-.19,42.43.42,63.56-.31,6.3-1.24,6.92-5.83,4.87-11.22-10.3-16.84-22.6-32.49-33.83-48.75-1.45-2.1-2.99-4.2-4.08-6.52l-36.22-.05c-1.77,3.15-3.88,6.11-5.95,9.07-10.68,15.26-22.07,30.14-31.94,45.9-2.77,6.94-.79,11.31,6.91,11.89,4.99.38,10.38-.32,15.41.06,2.48.84,2.26,4.63-.44,4.94-3.79.45-11.53.25-15.49,0-14.15-.88-15.15-13.03-8.75-23.25,9.48-15.15,21.7-29.85,31.8-44.79,1.29-1.9,3.45-4.7,4.23-6.75,1.57-4.17.58-9.09.55-13.4-.05-5.91.06-11.82.01-17.73-.14-.7-1.36-.87-2-1.24-4.66-2.7-4.63-7.86-4.25-12.74.32-4.03,2.78-6.61,6.5-7.85h43.42ZM43.7,5.05c-2.05.5-2.54,1.86-2.69,3.8-.16,2.04-.42,6.98,2.18,7.57l41.62.06c2.02-.3,2.48-2.1,2.62-3.86.19-2.48.46-6.99-2.69-7.56h-41.05ZM80.45,21.7h-32.94v28.94h32.94v-28.94Z"/>
  <path d="M68.67,74.16c5.4-.68,10.48,3.05,11.03,8.54.31,3.06.32,11.21-.87,13.84-3.89,8.59-17.36,6.44-18.34-2.62-.29-2.64-.29-9.08,0-11.73.43-3.95,4.3-7.54,8.18-8.04ZM69.41,79.13c-1.68.23-3.46,1.72-3.82,3.42s-.32,8.42-.11,10.37c.58,5.38,8.69,5.7,9.24-.74.19-2.15.26-8.92-.62-10.63-.83-1.61-2.88-2.67-4.69-2.43Z"/>
  <path d="M38.87,76.42c.62-.62,1.67-1.28,2.49-1.63,2.11-.9,9.88-1.05,12.25-.69,2.86.44,2.91,4.7-.22,4.99-2.84.26-6.44-.41-9.18.05-3.66.62-3.7,5.96.44,6.43,2.33.26,3.87-.35,6.29.7,6.33,2.76,6.43,12.08.17,14.98-2.22,1.03-9.86,1.09-12.45.79-2.89-.34-2.89-4.66,0-5s6.96.52,9.63-.1c3.4-.78,3.23-5.84-.41-6.36-2-.28-3.72.28-5.84-.4-5.75-1.86-7.45-9.52-3.16-13.75Z"/>
  <path d="M91.68,111.51h6.11c.28,0,1.29.96,1.43,1.31.67,1.65-.17,3.39-1.95,3.66-1.96.3-10.24.3-12.19,0-1.57-.24-2.7-1.79-2.13-3.33,3.11-4.43,7.81-7.74,11.24-11.98,1.06-2.68-1.77-5.6-4.27-3.52-1.65,1.37-1.42,4.81-4.75,3.76-3.16-.99-.69-5.44.76-7,6.1-6.59,15.96.53,13.03,8.53-1.11,3.04-4.99,5.31-6.91,7.81-.19.25-.48.31-.37.75Z"/>
  <path d="M40.21,122.79c4.04-.82,4.15,5.46.21,4.92-2.75-.38-2.85-4.39-.21-4.92Z"/>
</svg>