<?xml version="1.0" encoding="UTF-8"?>
<svg id="Livello_1" xmlns="http://www.w3.org/2000/svg" version="1.1" viewBox="0 0 128 128">
  <!-- Generator: Adobe Illustrator 29.8.1, SVG Export Plug-In . SVG Version: 2.1.1 Build 2)  -->
  <path d="M67.01,0c1.59.41,3.22.64,4.8,1.07,15.04,4.12,26.14,20.4,31.99,33.99,13.69,31.81,13.17,80.48-26.89,91.41l-8.66,1.47c-2.78-.14-5.74.19-8.5,0-33.8-2.29-46.12-33.29-43.25-63.34C18.69,41.83,34.43,2.45,61.01,0h6ZM62.21,3.57c-26.62,2.06-41.35,42.72-42.46,65.26-1.46,29.73,13.05,56.93,46.15,55.62,33.63-1.34,45.28-31.5,41.83-61.07C105.2,41.62,89.44,1.47,62.21,3.57Z"/>
  <path d="M63.44,10.05c1.34-.39,4.11.26,5.51.63,5.96,1.58,11.44,6.28,15.3,10.94.74.89,3.74,4.61,3.74,5.49,0,.75-.97,1.66-1.7,1.75-1.51.18-3.79-3.81-4.79-4.99-4.64-5.47-10.72-10.29-18.24-10.51-1.45-.64-1.26-2.9.17-3.32Z"/>
</svg>